<?xml version="1.0" encoding="utf-8"?>
<!-- Generator: Adobe Illustrator 19.1.0, SVG Export Plug-In . SVG Version: 6.00 Build 0)  -->
<!DOCTYPE svg PUBLIC "-//W3C//DTD SVG 1.1//EN" "http://www.w3.org/Graphics/SVG/1.1/DTD/svg11.dtd">
<svg version="1.1" id="Layer_1" xmlns="http://www.w3.org/2000/svg" xmlns:xlink="http://www.w3.org/1999/xlink" x="0px" y="0px"
	 viewBox="-230 322 150 150" style="enable-background:new -230 322 150 150;" xml:space="preserve">
<style type="text/css">
	.st0{fill:#6C5887;}
	.st1{fill:#809450;}
</style>
<g>
	<path class="st0" d="M-224.1,388.9h12.1v3.4h-7.6v3.2h7.1v3.4h-7.1v7.3h-4.5V388.9z"/>
	<path class="st0" d="M-199.9,396.8c-0.4-0.2-0.7-0.3-1.1-0.4c-0.4-0.1-0.7-0.1-1.1-0.1c-1.1,0-1.9,0.3-2.5,1
		c-0.6,0.7-0.9,1.7-0.9,2.9v6h-4.2v-13h4.2v2.1c0.5-0.9,1.1-1.5,1.8-1.9c0.7-0.4,1.5-0.6,2.5-0.6c0.1,0,0.3,0,0.5,0
		c0.2,0,0.4,0,0.7,0.1L-199.9,396.8z"/>
	<path class="st0" d="M-185.7,398.9v7.4h-4.2v-1.9c-0.6,0.8-1.2,1.4-1.9,1.7c-0.7,0.4-1.5,0.5-2.5,0.5c-1.3,0-2.4-0.4-3.3-1.2
		c-0.8-0.8-1.3-1.8-1.3-3.1c0-1.5,0.5-2.6,1.6-3.4c1-0.7,2.7-1.1,4.9-1.1h2.4v-0.3c0-0.7-0.3-1.1-0.8-1.4c-0.5-0.3-1.3-0.5-2.4-0.5
		c-0.9,0-1.7,0.1-2.5,0.3c-0.8,0.2-1.5,0.4-2.1,0.8v-3.2c0.9-0.2,1.8-0.4,2.7-0.5c0.9-0.1,1.8-0.2,2.7-0.2c2.3,0,4,0.5,5.1,1.4
		C-186.2,395.3-185.7,396.8-185.7,398.9z M-192,400.4c-0.9,0-1.5,0.1-2,0.4c-0.4,0.3-0.7,0.7-0.7,1.3c0,0.5,0.2,0.9,0.5,1.2
		c0.4,0.3,0.8,0.4,1.5,0.4c0.8,0,1.4-0.3,2-0.8c0.5-0.6,0.8-1.3,0.8-2.1v-0.5H-192z"/>
	<path class="st0" d="M-169.8,395.4c0.5-0.8,1.2-1.4,1.9-1.8c0.7-0.4,1.5-0.6,2.4-0.6c1.5,0,2.6,0.5,3.4,1.4c0.8,0.9,1.2,2.3,1.2,4
		v7.9h-4.2v-6.8c0-0.1,0-0.2,0-0.3c0-0.1,0-0.3,0-0.5c0-0.9-0.1-1.6-0.4-2c-0.3-0.4-0.7-0.6-1.3-0.6c-0.8,0-1.4,0.3-1.8,1
		c-0.4,0.6-0.7,1.6-0.7,2.8v6.4h-4.2v-6.8c0-1.4-0.1-2.4-0.4-2.8c-0.2-0.4-0.7-0.6-1.3-0.6c-0.8,0-1.4,0.3-1.8,1
		c-0.4,0.7-0.6,1.6-0.6,2.8v6.4h-4.2v-13h4.2v1.9c0.5-0.7,1.1-1.3,1.8-1.7c0.7-0.4,1.4-0.6,2.2-0.6c0.9,0,1.7,0.2,2.4,0.6
		C-170.7,394-170.1,394.7-169.8,395.4z"/>
	<path class="st0" d="M-144.9,398.9v7.4h-4.2v-1.9c-0.6,0.8-1.2,1.4-1.9,1.7c-0.7,0.4-1.5,0.5-2.5,0.5c-1.3,0-2.4-0.4-3.3-1.2
		c-0.8-0.8-1.3-1.8-1.3-3.1c0-1.5,0.5-2.6,1.6-3.4c1-0.7,2.7-1.1,4.9-1.1h2.4v-0.3c0-0.7-0.3-1.1-0.8-1.4c-0.5-0.3-1.3-0.5-2.4-0.5
		c-0.9,0-1.7,0.1-2.5,0.3c-0.8,0.2-1.5,0.4-2.1,0.8v-3.2c0.9-0.2,1.8-0.4,2.7-0.5c0.9-0.1,1.8-0.2,2.7-0.2c2.3,0,4,0.5,5.1,1.4
		C-145.4,395.3-144.9,396.8-144.9,398.9z M-151.2,400.4c-0.9,0-1.5,0.1-2,0.4c-0.4,0.3-0.7,0.7-0.7,1.3c0,0.5,0.2,0.9,0.5,1.2
		c0.4,0.3,0.8,0.4,1.5,0.4c0.8,0,1.4-0.3,2-0.8c0.5-0.6,0.8-1.3,0.8-2.1v-0.5H-151.2z"/>
	<path class="st1" d="M-132.2,395.2v-7h4.2v18.1h-4.2v-1.9c-0.6,0.8-1.2,1.3-1.9,1.7c-0.7,0.4-1.5,0.5-2.4,0.5
		c-1.6,0-2.9-0.6-3.9-1.9c-1-1.3-1.5-2.9-1.5-4.9s0.5-3.6,1.5-4.9s2.3-1.9,3.9-1.9c0.9,0,1.7,0.2,2.4,0.5
		C-133.4,393.9-132.8,394.4-132.2,395.2z M-134.9,403.6c0.9,0,1.6-0.3,2-1c0.5-0.6,0.7-1.6,0.7-2.8c0-1.2-0.2-2.2-0.7-2.8
		c-0.5-0.6-1.1-1-2-1c-0.9,0-1.6,0.3-2,1c-0.5,0.6-0.7,1.6-0.7,2.8c0,1.2,0.2,2.2,0.7,2.8C-136.5,403.3-135.8,403.6-134.9,403.6z"/>
	<path class="st1" d="M-111.8,398.9v7.4h-4.2v-1.9c-0.6,0.8-1.2,1.4-1.9,1.7c-0.7,0.4-1.5,0.5-2.5,0.5c-1.3,0-2.4-0.4-3.3-1.2
		c-0.8-0.8-1.3-1.8-1.3-3.1c0-1.5,0.5-2.6,1.6-3.4c1-0.7,2.7-1.1,4.9-1.1h2.4v-0.3c0-0.7-0.3-1.1-0.8-1.4c-0.5-0.3-1.3-0.5-2.4-0.5
		c-0.9,0-1.7,0.1-2.5,0.3c-0.8,0.2-1.5,0.4-2.1,0.8v-3.2c0.9-0.2,1.8-0.4,2.7-0.5c0.9-0.1,1.8-0.2,2.7-0.2c2.3,0,4,0.5,5.1,1.4
		C-112.4,395.3-111.8,396.8-111.8,398.9z M-118.2,400.4c-0.9,0-1.5,0.1-2,0.4c-0.4,0.3-0.7,0.7-0.7,1.3c0,0.5,0.2,0.9,0.5,1.2
		c0.4,0.3,0.8,0.4,1.5,0.4c0.8,0,1.4-0.3,2-0.8c0.5-0.6,0.8-1.3,0.8-2.1v-0.5H-118.2z"/>
	<path class="st1" d="M-103.4,389.6v3.7h4.3v3h-4.3v5.5c0,0.6,0.1,1,0.4,1.2c0.2,0.2,0.7,0.3,1.4,0.3h2.1v3h-3.6
		c-1.6,0-2.8-0.3-3.5-1c-0.7-0.7-1-1.8-1-3.5v-5.5h-2.1v-3h2.1v-3.7H-103.4z"/>
	<path class="st1" d="M-83.6,399.7v1.2h-9.7c0.1,1,0.5,1.7,1.1,2.2c0.6,0.5,1.4,0.7,2.5,0.7c0.9,0,1.8-0.1,2.7-0.4
		c0.9-0.3,1.9-0.7,2.8-1.2v3.2c-1,0.4-2,0.7-2.9,0.8s-2,0.3-2.9,0.3c-2.4,0-4.2-0.6-5.5-1.8c-1.3-1.2-2-2.9-2-5c0-2.1,0.6-3.8,1.9-5
		c1.3-1.2,3-1.8,5.3-1.8c2,0,3.7,0.6,4.9,1.8C-84.3,396-83.6,397.7-83.6,399.7z M-87.9,398.4c0-0.8-0.2-1.4-0.7-1.9
		c-0.5-0.5-1.1-0.7-1.8-0.7c-0.8,0-1.5,0.2-2,0.7c-0.5,0.5-0.8,1.1-0.9,2H-87.9z"/>
</g>
</svg>
