<?xml version="1.0" encoding="utf-8"?>
<!-- Generator: Adobe Illustrator 19.1.0, SVG Export Plug-In . SVG Version: 6.00 Build 0)  -->
<!DOCTYPE svg PUBLIC "-//W3C//DTD SVG 1.1//EN" "http://www.w3.org/Graphics/SVG/1.1/DTD/svg11.dtd">
<svg version="1.1" id="Layer_1" xmlns="http://www.w3.org/2000/svg" xmlns:xlink="http://www.w3.org/1999/xlink" x="0px" y="0px"
	 viewBox="-241 333 128 128" style="enable-background:new -241 333 128 128;" xml:space="preserve">
<style type="text/css">
	.st0{opacity:0.6;fill:#D1D1D1;enable-background:new    ;}
	.st1{fill:#FFFFFF;stroke:#D8D8D8;stroke-miterlimit:10;}
	.st2{fill:#6C5887;}
	.st3{fill:#809450;}
</style>
<path class="st0" d="M-119.5,461h-110c-3.5,0-6.4-2.9-6.4-6.4V348.1c0.1-3.5,3-6.4,6.5-6.4h110c3.5,0,6.4,2.9,6.4,6.4v106.6
	C-113.1,458.2-116,461-119.5,461z"/>
<path class="st1" d="M-124.1,456.5h-110c-3.5,0-6.4-2.9-6.4-6.4V343.6c0-3.5,2.9-6.4,6.4-6.4h110c3.5,0,6.4,2.9,6.4,6.4v106.6
	C-117.7,453.7-120.6,456.5-124.1,456.5z"/>
<g>
	<path class="st2" d="M-237.4,387.5h9.9v2.8h-6.2v2.6h5.8v2.8h-5.8v6h-3.7V387.5z"/>
	<path class="st2" d="M-217.6,393.9c-0.3-0.1-0.6-0.2-0.9-0.3c-0.3-0.1-0.6-0.1-0.9-0.1c-0.9,0-1.5,0.3-2,0.8
		c-0.5,0.6-0.7,1.4-0.7,2.4v4.9h-3.4V391h3.4v1.7c0.4-0.7,0.9-1.2,1.5-1.5c0.6-0.3,1.2-0.5,2-0.5c0.1,0,0.2,0,0.4,0s0.3,0,0.6,0.1
		L-217.6,393.9z"/>
	<path class="st2" d="M-205.9,395.6v6.1h-3.4v-1.6c-0.5,0.6-1,1.1-1.5,1.4c-0.6,0.3-1.3,0.4-2.1,0.4c-1.1,0-2-0.3-2.7-1
		c-0.7-0.6-1-1.5-1-2.5c0-1.2,0.4-2.2,1.3-2.7c0.9-0.6,2.2-0.9,4-0.9h2v-0.3c0-0.5-0.2-0.9-0.6-1.2c-0.4-0.3-1.1-0.4-2-0.4
		c-0.7,0-1.4,0.1-2,0.2c-0.6,0.1-1.2,0.4-1.7,0.7v-2.6c0.7-0.2,1.5-0.3,2.2-0.4c0.7-0.1,1.5-0.1,2.2-0.1c1.9,0,3.3,0.4,4.2,1.1
		C-206.4,392.7-205.9,393.9-205.9,395.6z M-211.1,396.9c-0.7,0-1.2,0.1-1.6,0.4c-0.4,0.2-0.5,0.6-0.5,1.1c0,0.4,0.1,0.8,0.4,1
		c0.3,0.2,0.7,0.4,1.2,0.4c0.6,0,1.2-0.2,1.6-0.7c0.4-0.5,0.7-1,0.7-1.7v-0.4H-211.1z"/>
	<path class="st2" d="M-192.9,392.8c0.4-0.7,0.9-1.2,1.5-1.5c0.6-0.3,1.2-0.5,2-0.5c1.2,0,2.2,0.4,2.8,1.1c0.6,0.8,1,1.9,1,3.3v6.5
		h-3.4v-5.6c0-0.1,0-0.2,0-0.3c0-0.1,0-0.2,0-0.4c0-0.8-0.1-1.3-0.3-1.6c-0.2-0.3-0.6-0.5-1.1-0.5c-0.6,0-1.1,0.3-1.5,0.8
		c-0.4,0.5-0.5,1.3-0.5,2.3v5.2h-3.4v-5.6c0-1.2-0.1-1.9-0.3-2.3c-0.2-0.3-0.6-0.5-1.1-0.5c-0.7,0-1.2,0.3-1.5,0.8
		c-0.4,0.5-0.5,1.3-0.5,2.3v5.2h-3.4V391h3.4v1.6c0.4-0.6,0.9-1.1,1.4-1.4c0.5-0.3,1.1-0.5,1.8-0.5c0.7,0,1.4,0.2,1.9,0.5
		C-193.6,391.7-193.2,392.2-192.9,392.8z"/>
	<path class="st2" d="M-172.5,395.6v6.1h-3.4v-1.6c-0.5,0.6-1,1.1-1.5,1.4c-0.6,0.3-1.3,0.4-2.1,0.4c-1.1,0-2-0.3-2.7-1
		c-0.7-0.6-1-1.5-1-2.5c0-1.2,0.4-2.2,1.3-2.7c0.9-0.6,2.2-0.9,4-0.9h2v-0.3c0-0.5-0.2-0.9-0.6-1.2c-0.4-0.3-1.1-0.4-2-0.4
		c-0.7,0-1.4,0.1-2,0.2c-0.6,0.1-1.2,0.4-1.7,0.7v-2.6c0.7-0.2,1.5-0.3,2.2-0.4c0.7-0.1,1.5-0.1,2.2-0.1c1.9,0,3.3,0.4,4.2,1.1
		C-172.9,392.7-172.5,393.9-172.5,395.6z M-177.7,396.9c-0.7,0-1.2,0.1-1.6,0.4c-0.4,0.2-0.5,0.6-0.5,1.1c0,0.4,0.1,0.8,0.4,1
		c0.3,0.2,0.7,0.4,1.2,0.4c0.6,0,1.2-0.2,1.6-0.7c0.4-0.5,0.7-1,0.7-1.7v-0.4H-177.7z"/>
	<path class="st3" d="M-162.1,392.6v-5.7h3.4v14.8h-3.4v-1.5c-0.5,0.6-1,1.1-1.6,1.4c-0.6,0.3-1.2,0.4-2,0.4c-1.3,0-2.4-0.5-3.2-1.6
		c-0.8-1-1.3-2.4-1.3-4s0.4-3,1.3-4c0.8-1,1.9-1.6,3.2-1.6c0.7,0,1.4,0.1,2,0.4C-163.1,391.5-162.6,392-162.1,392.6z M-164.3,399.5
		c0.7,0,1.3-0.3,1.7-0.8c0.4-0.5,0.6-1.3,0.6-2.3c0-1-0.2-1.8-0.6-2.3c-0.4-0.5-0.9-0.8-1.7-0.8c-0.7,0-1.3,0.3-1.7,0.8
		c-0.4,0.5-0.6,1.3-0.6,2.3c0,1,0.2,1.8,0.6,2.3C-165.6,399.2-165.1,399.5-164.3,399.5z"/>
	<path class="st3" d="M-145.4,395.6v6.1h-3.4v-1.6c-0.5,0.6-1,1.1-1.5,1.4c-0.6,0.3-1.3,0.4-2.1,0.4c-1.1,0-2-0.3-2.7-1
		c-0.7-0.6-1-1.5-1-2.5c0-1.2,0.4-2.2,1.3-2.7c0.9-0.6,2.2-0.9,4-0.9h2v-0.3c0-0.5-0.2-0.9-0.6-1.2c-0.4-0.3-1.1-0.4-2-0.4
		c-0.7,0-1.4,0.1-2,0.2c-0.6,0.1-1.2,0.4-1.7,0.7v-2.6c0.7-0.2,1.5-0.3,2.2-0.4c0.7-0.1,1.5-0.1,2.2-0.1c1.9,0,3.3,0.4,4.2,1.1
		C-145.8,392.7-145.4,393.9-145.4,395.6z M-150.6,396.9c-0.7,0-1.2,0.1-1.6,0.4c-0.4,0.2-0.5,0.6-0.5,1.1c0,0.4,0.1,0.8,0.4,1
		c0.3,0.2,0.7,0.4,1.2,0.4c0.6,0,1.2-0.2,1.6-0.7c0.4-0.5,0.7-1,0.7-1.7v-0.4H-150.6z"/>
	<path class="st3" d="M-138.5,388v3h3.5v2.4h-3.5v4.5c0,0.5,0.1,0.8,0.3,1c0.2,0.2,0.6,0.3,1.2,0.3h1.7v2.4h-2.9
		c-1.3,0-2.3-0.3-2.9-0.8c-0.6-0.6-0.8-1.5-0.8-2.9v-4.5h-1.7V391h1.7v-3H-138.5z"/>
	<path class="st3" d="M-122.3,396.3v1h-8c0.1,0.8,0.4,1.4,0.9,1.8c0.5,0.4,1.2,0.6,2.1,0.6c0.7,0,1.5-0.1,2.2-0.3
		c0.8-0.2,1.5-0.5,2.3-1v2.6c-0.8,0.3-1.6,0.5-2.4,0.7c-0.8,0.2-1.6,0.2-2.4,0.2c-1.9,0-3.4-0.5-4.5-1.5c-1.1-1-1.6-2.4-1.6-4.1
		c0-1.7,0.5-3.1,1.6-4.1c1-1,2.5-1.5,4.3-1.5c1.7,0,3,0.5,4,1.5C-122.8,393.3-122.3,394.6-122.3,396.3z M-125.8,395.2
		c0-0.6-0.2-1.2-0.6-1.6c-0.4-0.4-0.9-0.6-1.5-0.6c-0.7,0-1.2,0.2-1.6,0.6c-0.4,0.4-0.7,0.9-0.8,1.6H-125.8z"/>
</g>
</svg>
